PathFileType	3	(X/Y/Z)	D:\Jess\Healthy\Labelled\HA03\20250325\SRRun01.trc
DataRate	CameraRate	NumFrames	NumMarkers	Units	OrigDataRate	OrigDataStartFrame	OrigNumFrames
250.0	250.0	6	33	mm	250.0	35000	2501
Frame#	Time	C7			T10			CLAV			LSHO			RSHO			LASIS			RASIS			LPSIS			RPSIS			LILCR			RILCR			LGTR			LTHI			LLTHI			LLEP			LPSH			LLSH			LDSH			LLMAL			LTOE			L5TH			LHEE			RGTR			RTHI			RLTHI			RLEP			RPSH			RLSH			RDSH			RLMAL			RTOE			R5TH			RHEE			
		X1	Y1	Z1	X2	Y2	Z2	X3	Y3	Z3	X4	Y4	Z4	X5	Y5	Z5	X6	Y6	Z6	X7	Y7	Z7	X8	Y8	Z8	X9	Y9	Z9	X10	Y10	Z10	X11	Y11	Z11	X12	Y12	Z12	X13	Y13	Z13	X14	Y14	Z14	X15	Y15	Z15	X16	Y16	Z16	X17	Y17	Z17	X18	Y18	Z18	X19	Y19	Z19	X20	Y20	Z20	X21	Y21	Z21	X22	Y22	Z22	X23	Y23	Z23	X24	Y24	Z24	X25	Y25	Z25	X26	Y26	Z26	X27	Y27	Z27	X28	Y28	Z28	X29	Y29	Z29	X30	Y30	Z30	X31	Y31	Z31	X32	Y32	Z32	X33	Y33	Z33	

1	139.996	853.413838814571	1427.872298322576	-246.4707003303286	774.4328627555793	1172.361959838659	-265.9255572521749	980.279922310409	1331.425105173718	-231.5485885274051	934.4089856892668	1413.300108929472	-394.1874734067959	889.8100688527232	1398.003669839028	-89.98619139078028	913.6666174625536	972.0469038321012	-352.7260145298403	901.896866870911	990.5886540988629	-168.9971296898602	744.2199249588011	1021.931261023098	-296.3607618714926	738.8944686300457	1024.405637854032	-248.3566573628946	866.018895974172	1014.932989134533	-404.2940558791391	832.4208734242973	1017.739346879602	-117.8693536302642	893.3810447573686	890.7760249359925	-403.3835607106107	933.1769929845053	680.2032822586324	-338.4711847975883	852.3727506289717	613.9521721493578	-391.3844433360755	813.1895105121191	480.4696762783225	-365.7743706503425	733.9897327387289	395.4917928850126	-322.5708730445847	602.923366393814	436.4717756939292	-378.7201559360906	540.5481583250512	368.7258426107554	-328.9317804283066	428.0015609720409	396.4039271498156	-364.6004568169894	368.6097634284552	250.1883032919184	-335.2790776529041	346.0021539613393	284.5701950359426	-372.9689183657371	422.1555521753019	463.5650761325173	-312.9362197375239	823.7176051408774	927.7389614978094	-94.90131293138542	998.9811254767609	737.9953625627046	-168.0304086111693	972.3078526305871	625.6611462720992	-120.3754520245736	995.5051867695679	520.1398379868047	-142.0074106252055	1010.678134862279	396.4547172386087	-199.1313028319318	934.4421246001314	297.2046256832635	-137.3464255917095	953.9408099032097	180.4839168579838	-198.7207311486644	888.1602958927371	112.738595841436	-170.9498047884325	1034.224179161935	67.46222756079709	-187.9920812895804	988.896058648248	47.36980906629981	-145.2762723336483	808.429330390628	88.22936118002971	-214.8743320666363	
2	140	853.8605629778772	1425.646590119248	-245.4734686471122	773.5217990236073	1170.55672124973	-265.6850394176035	980.1974164295262	1328.075002712	-231.9269839952217	933.6497379718752	1410.884502686306	-394.011939794973	891.1781124099103	1394.061660631648	-89.08795057175099	912.2531314443964	969.5336362440109	-352.747728626447	900.919150269945	988.7926441104299	-168.7685535408334	742.9394848443321	1019.573970231547	-296.7581234705218	737.8424819417764	1021.972378461719	-248.9394572504468	864.0993824600559	1011.894704629649	-404.7375538950045	830.9097064165406	1015.8861366828	-118.1016467859178	892.873477864813	888.1796877846692	-403.103509169655	935.7932518799465	679.241568417296	-338.2740652399721	856.3641569006468	611.6116058316801	-391.4383042686835	820.3717351435322	478.2455954168152	-365.7125215795484	741.0707737586679	394.0345727561705	-322.1181183463985	610.5761748794946	435.8722007431757	-378.7447383288327	547.6559051882026	369.1315452482283	-328.8602315970396	435.573728311754	398.0648000942903	-364.6460556392132	376.8144664109803	251.4651888624221	-336.8726075399283	354.6289157146173	285.9504216556735	-374.6911254588906	428.7873383179074	464.9841300285162	-312.6300363668441	822.1416875379468	926.0575320828791	-95.17248720320569	996.878427638164	736.3877043972095	-167.8766745389179	970.5505340118858	623.4119064868038	-119.6631112094172	992.9694356335455	517.8084612703391	-141.3732730678512	1006.445931635343	393.9473736067191	-198.4749612967294	928.5314117087374	295.8606316197928	-136.9130504523888	944.8120728882114	179.2540065781469	-198.5013050655076	877.7243112553514	112.8054547192763	-170.4292442153075	1023.045646635734	66.93340614805111	-187.7667432200961	977.6159534189486	47.15142218960766	-144.9905754587709	797.346536855599	88.69321942117466	-214.5021967508445	
3	140.004	854.2964810937132	1423.434508886931	-244.4873924041876	772.6176953637641	1168.762018948681	-265.4466318278885	980.1120003005018	1324.754379127219	-232.3002018006675	932.8983554631527	1408.486937178784	-393.8378532974001	892.5290964736201	1390.156759360005	-88.20059217221946	910.8421348355407	967.0425037697016	-352.791402813668	899.9550704909717	987.0038100006329	-168.5668954546839	741.6667642510989	1017.241309869824	-297.1340206261282	736.7969010904146	1019.571610585492	-249.4963669403689	862.1740691450783	1008.88867921815	-405.1821547965072	829.437008001897	1014.046081164015	-118.3306538085134	892.3427221508475	885.6100284016402	-402.8509401453381	938.3851151635519	678.2826724146588	-338.0773519602033	860.3348974595068	609.287964721343	-391.4982561971769	827.5010089858573	476.0390044320278	-365.6514938962334	748.0973277464365	392.58949891571	-321.6713643615922	618.1776914983294	435.2933809584086	-378.7634906184916	554.7075705812362	369.5325401923017	-328.7913981505329	443.0799850997479	399.711303769411	-364.6941745318111	384.9463626458522	252.7192721482867	-338.4424980063355	363.1777146658583	287.3059506634585	-376.3924811872852	435.3557620143843	466.3996061804032	-312.3360610781169	820.6082936325486	924.3901987241652	-95.43137651795081	994.8129422956649	734.7491113564897	-167.6969817417859	968.7815707508217	621.1586105273809	-118.9493113716607	990.4400778667406	515.4694704829906	-140.7334544277705	1002.235076000063	391.4383614099423	-197.8223141581661	922.660699248334	294.5087659237669	-136.4836463025977	935.7672639165507	178.027840485935	-198.2810383300329	867.3869300461037	112.8623286453495	-169.9170352565822	1011.975637223932	66.41023483898672	-187.5424488346128	966.4460258875483	46.93306433230943	-144.7078346628997	786.3713084227397	89.14166449561789	-214.1387639839239	
4	140.008	854.7100766663726	1421.261234532326	-243.5203067657296	771.7282472189933	1167.000597947365	-265.2076241069531	980.0207447376364	1321.507976592172	-232.676530262271	932.1421547900354	1406.146489080757	-393.6675424002663	893.8636609639339	1386.336227104663	-87.34113890719833	909.4361481693097	964.6091962357887	-352.867310642955	899.0122056531037	985.237638246456	-168.4076018819764	740.4074550864343	1014.972343193467	-297.46800378742	735.7623298407034	1017.24897876586	-250.0025911936983	860.2422048033284	1005.961435490931	-405.6231114986554	828.0327355614305	1012.243293174149	-118.5498321647363	891.7709383706251	883.109354501319	-402.6445353288888	940.9523518308258	677.3708491823288	-337.8794891110744	864.3025840777461	607.0327249930165	-391.5728821331134	834.5821123918673	473.9065912190804	-365.5928755076312	755.0923952671876	391.1907355820909	-321.2421874246272	625.7409561152629	434.7538248456007	-378.7730283985699	561.7282334141137	369.907698809259	-328.7296532214324	450.5295835716544	401.2850457224283	-364.7490586594827	393.0572709957106	253.8824853985872	-339.9586173095875	371.6862435637029	288.5558134848192	-378.0470239025117	441.8528455746405	467.7555358719272	-312.0729709290755	819.1422743898424	922.7602339906815	-95.66594781661722	992.7724124257351	733.0446057990723	-167.4764244026602	966.9280497210727	618.8975520609309	-118.2361704114136	987.8425627489834	513.1145983402753	-140.0862708107562	997.9754179871542	388.9255204280005	-197.181178699927	916.776515411687	293.1445571281423	-136.06499463793	926.7859604145993	176.8138255258334	-198.061346102001	857.1402433985957	112.9101539744529	-169.4204722663005	1001.013564278198	65.89737413543851	-187.3215355254394	955.3858236761325	46.71635591923557	-144.4314083498818	775.5039363612558	89.57444715213744	-213.7889326093232	
5	140.012	855.0910425605487	1419.151644655897	-242.5789743219492	770.8607813135233	1165.2949562554	-264.9651227576819	979.9210189481571	1318.378715322843	-233.0649020956726	931.3674660591219	1403.901525285973	-393.5034359092563	895.1840104208975	1382.644683378622	-86.52563640251155	908.0376959677154	962.2678496117335	-352.9835021948323	898.0970394128965	983.5093578736177	-168.3034845578514	739.166900025847	1012.80450558524	-297.7415981537681	734.7430160452934	1015.047814913932	-250.4356651720673	858.304098240645	1003.157202969595	-406.0552163322088	826.7234385886497	1010.501312689334	-118.7529550168062	891.142056589092	880.7178304433969	-402.5005927425359	943.4967547962794	676.5504672316433	-337.6794152373731	868.2860021776428	604.8967084900934	-391.6702598872308	841.6236386726599	471.9044293199835	-365.5383113931241	762.0829924572988	389.8719442759832	-320.8421213936823	633.2824083544666	434.2706958258152	-378.7706981560264	568.7469693321365	370.236150046497	-328.679649923756	457.9362623485098	402.728215056087	-364.8148985881581	401.2039211763774	254.8880100628001	-341.3926429613118	380.1971706082609	289.620573599369	-379.6301748686752	448.2753345587741	468.9956034447622	-311.8584939229533	817.7645422261432	921.1902390745258	-95.86519757054054	990.740204114883	731.243911281528	-167.2035463790801	964.9199060517913	616.6270246904968	-117.5262726555816	985.1019963493355	510.7376130495524	-139.4309803959974	993.5958250830065	386.4079213399444	-196.558307317419	910.821475895548	291.7657924025527	-135.663544241812	917.8413685564475	175.6203287079198	-197.8437855131953	846.9689514464322	112.9507137420699	-168.9462553218884	990.1506672946398	65.39910745156665	-187.1063311546613	944.4266459032442	46.50299116832917	-144.1643900289469	764.7366037091402	89.99249204049909	-213.456974444721	
6	140.016	855.430818480212	1417.1299549585	-241.6689161274344	770.0221651837581	1163.666958053091	-264.7161903507912	979.8106911196587	1315.40664267081	-233.4745343246141	930.5602537215317	1401.788735017952	-393.3480393755804	896.4937151540581	1379.123026463103	-85.76859248222613	906.6496300604811	960.050150148655	-353.1450707891979	897.2148121884874	981.8338470159921	-168.26378863806	737.9501889219468	1010.772519703686	-297.9392921335249	733.7429393815111	1013.007702490205	-250.7766148879124	856.3618780653958	1000.516611699674	-406.4728090058661	825.5310261643281	1008.842631561741	-118.9343364818487	890.4429646210726	878.4722677141104	-402.4319863947918	946.0216615677814	675.8645262341977	-337.4767401834871	872.3033787546717	602.9286095324535	-391.7975349518077	848.6362129815768	470.0862058581117	-365.4894876448103	769.0977219828801	388.6652659261585	-320.4822784853307	640.8196239573725	433.8589883340513	-378.7547914352812	575.7943851697167	370.4980201627629	-328.6461812940963	465.3163762757782	403.9854935441613	-364.895608617511	409.444300566465	255.672851702094	-342.7190845140217	388.7549623296414	290.4254138597321	-381.1194983665882	454.6238151705011	470.0648443238621	-311.7085644713364	816.4910132845488	919.7016424838141	-96.01971161754908	988.695840924515	729.3239839144411	-166.8713876496828	962.69371724224	614.3484679379637	-116.8228698204237	982.1468468908308	508.3356978443476	-138.7681996204005	989.0280625771152	383.8869423975102	-195.9591807218137	904.7376311370977	290.3734913655452	-135.2852219319088	908.9028747455823	174.4557663179536	-197.6300781724966	836.8526312962781	112.9867860052816	-168.5002570082727	979.3720689813612	64.91923863414436	-186.8991095168446	933.5535969015557	46.29476129787406	-143.9095186830678	754.0554246783767	90.39803747240767	-213.1463622253756	
